{"accessors" : [{"bufferView" : 0, "byteOffset" : 0, "componentType" : 5123, "count" : 29520, "type" : "SCALAR", "max" : [6629], "min" : [0]}, {"bufferView" : 1, "byteOffset" : 0, "componentType" : 5126, "count" : 6630, "type" : "VEC3", "max" : [0.42527276277542114, 0.2988673150539398, 0.20460587739944458], "min" : [-0.5402265787124634, -0.271390438079834, -0.25110068917274475], "name" : "POSITION"}, {"bufferView" : 1, "byteOffset" : 12, "componentType" : 5126, "count" : 6630, "type" : "VEC2", "max" : [0.9994083046913147, 0.9994363188743591], "min" : [0, 0], "name" : "TEXCOORD_0"}], "asset" : {"generator" : "Aspose.3D 24.2.0", "version" : "2.0"}, "buffers" : [{"uri" : "buffer.bin", "byteLength" : 191648}], "bufferViews" : [{"buffer" : 0, "byteOffset" : 0, "byteLength" : 59040, "target" : 34963}, {"buffer" : 0, "byteOffset" : 59044, "byteLength" : 132600, "byteStride" : 20, "target" : 34962}], "meshes" : [{"primitives" : [{"attributes" : {"POSITION" : 1, "TEXCOORD_0" : 2}, "indices" : 0, "mode" : 4}], "name" : ""}], "nodes" : [{"mesh" : 0, "name" : ""}], "scene" : 0, "scenes" : [{"nodes" : [0]}]}